_________________________  Visit us at _________________________
  
http://p2pdl.com  ____________________________  http://p2pdl.com

 
http://cdn.piczend.com/images/1N19eUFS/1361947565_cover.jpg

The Perks Of Being A Wallflower 2012 BRRip 720p x264 AAC - PRiSTiNE

Genre: Drama | Romance
Plot: An introvert freshman is taken under the wings of two seniors who welcome him to the real world.
Director: Stephen Chbosky
Stars: Logan Lerman, Emma Watson, Ezra Miller
Rated: Rated PG-13 on appeal for mature thematic material, drug and alcohol use, sexual content including references, and a fight - all involving teens.

Info: 
http://www.imdb.com/title/tt1659337/
 
http://www.rottentomatoes.com/m/the_perks_of_being_a_wallflower/

General
Complete name                  : The Perks Of Being A Wallflower 2012 BRRip 720p x264 AAC - PRiSTiNE.mp4
Format                         : MPEG-4
Format profile                 : Base Media / Version 2
Codec ID                       : mp42
File size                      : 617 MiB
Duration                       : 1h 42mn
Overall bit rate mode          : Variable
Overall bit rate               : 840 Kbps

Source                         : 720p.BluRay.x264-SPARKS (Thanks)

Video
Format                         : AVC
Format/Info                    : Advanced Video Codec
Format profile                 : High@L4.1
Bit rate                       : 755 Kbps
Width                          : 1 280 pixels
Height                         : 720 pixels
Display aspect ratio           : 16:9
Frame rate mode                : Variable
Frame rate                     : 23.976 fps
Bit depth                      : 8 bits
Scan type                      : Progressive
Bits/(Pixel*Frame)             : 0.034
Stream size                    : 554 MiB (90%)
Writing library                : x264 core 129

Audio
Format                         : AAC
Bit rate mode                  : Variable
Bit rate                       : 80.0 Kbps
Channel(s)                     : 2 channels
Channel positions              : Front: L R
Sampling rate                  : 48.0 KHz
Compression mode               : Lossy
Delay relative to video        : 83ms
Stream size                    : 58.7 MiB (10%)
Language                       : English

Subtitle                       : Yes ( English)


Screens: 
http://cdn.piczend.com/images/mLYsZ7u1/1361947565_1.jpg 
http://cdn.piczend.com/images/4topsCbX/1361947565_2.jpg 
http://cdn.piczend.com/images/GyBNeKoB/1361947565_3.jpg 
http://cdn.piczend.com/images/qBU7X6xW/1361947565_4.jpg


Thumbs: 
http://cdn.piczend.com/images/Djf4a6g3/1361947566_thumbs.jpg
----------------------------------------------------------------------------------------------------


Recommend to you to use latest version of VLC player. Install K-Lite Codec Pack or shark007 codecs
in case of any kind of problem in playback (For non-VLC Media Player users). Alternatively, install
Core AVC codecs, the fastest decoder that there is coupled with Community Center Codec Pack and play
on Windows Media Player Classic. Check sample to be sure.
Enjoy!

Greets to: VYTO, a2zRG, MusiK_KinG, Kuroyukihime, TorDigger, Ash968, StyLishSaLH, Masta and staff members at
ExtraTorrent, TPB, H33T, KAT, 1337x, PublicHD, Ahashare, BTScene, SilverTorrent, LimeTorrents, TorrentMafia,
P2PDL, and all others.

Encoder Notes: Looking For Early Access To Anything You Can Provide DVDScr, R5, DVDR, BluRay, Direct
Audio, Early Music Releases, Seedboxes, Dedicated Servers anything u can provide, Advance / Promo CDs/
DVDs. If You Got anything to offer contact me at "prg@hush.com".